<svg width="19" height="31" viewBox="0 0 19 31" fill="none" xmlns="http://www.w3.org/2000/svg">
<path d="M8.66177 5.37285C10.7001 3.34433 13.3283 2.45575 16.1173 2.45575H18.182V0.5H16.1085C12.7934 0.5 9.67873 1.59143 7.27501 3.98817C4.85587 6.40034 3.77508 9.4828 3.77508 12.8497V17.8989C3.77508 18.0842 3.75967 18.3179 3.73106 18.4766C3.66062 18.8537 3.50433 19.1602 3.25119 19.4137C3.02447 19.6386 2.74711 19.7687 2.538 19.8437C2.3575 19.9098 2.12637 19.9583 1.87763 19.9958C1.33173 20.0774 0 20.1061 0 20.1061V26.1651H1.80279C4.09866 26.1651 6.20962 25.4684 7.78569 23.8985C9.36396 22.3286 10.0573 20.3177 10.0573 18.1503V12.8475C10.0573 11.2137 10.579 9.68124 11.7831 8.48398C12.9938 7.2801 14.5302 6.75974 16.1437 6.75974H16.4254V9.08812C15.8751 9.12561 15.4899 9.17632 14.9881 9.33507C14.4598 9.50265 13.9579 9.77826 13.5176 10.2126C12.7824 10.9425 12.4765 11.8795 12.4765 12.8475V18.1503C12.4765 20.9836 11.5674 23.5898 9.52244 25.6271C7.48632 27.6557 4.85588 28.5442 2.06694 28.5442H0V30.4978H2.07354C5.38857 30.4978 8.50108 29.4064 10.907 27.0096C13.3261 24.5997 14.4069 21.515 14.4069 18.1503V13.1011C14.4069 12.9158 14.4223 12.6821 14.451 12.5234C14.5214 12.1463 14.6777 11.8398 14.9308 11.5863C15.1575 11.3614 15.4349 11.2313 15.644 11.1563C15.8245 11.0902 16.0556 11.0417 16.3044 11.0042C16.8525 10.9226 18.182 10.8939 18.182 10.8939V4.83485H16.3792C14.0834 4.83485 11.9724 5.5316 10.3963 7.1015C8.81806 8.6714 8.12468 10.6823 8.12468 12.8497V18.1525C8.12468 19.7863 7.60299 21.3188 6.39892 22.516C5.18826 23.7177 3.65181 24.2381 2.04052 24.2381H1.75877V21.8612C2.31127 21.8237 2.7295 21.7553 3.19616 21.6142C3.72665 21.4533 4.22633 21.2195 4.66657 20.7852C5.40398 20.0553 5.70774 19.1183 5.70774 18.1503V12.8475C5.70774 10.0142 6.61684 7.40798 8.66177 5.37065" fill="#ffffff"/>
</svg>
